<svg width="298" height="156" viewBox="0 0 298 156" fill="none" xmlns="http://www.w3.org/2000/svg">
<mask id="mask0_11_4220" style="mask-type:luminance" maskUnits="userSpaceOnUse" x="131" y="3" width="10" height="10">
<path d="M135.594 3.46191L131.533 7.70087L136.337 12.3645L140.379 8.15965L135.594 3.46191Z" fill="white"/>
</mask>
<g mask="url(#mask0_11_4220)">
<path d="M140.379 3.46191H131.533V12.3645H140.379V3.46191Z" fill="white"/>
</g>
<mask id="mask1_11_4220" style="mask-type:luminance" maskUnits="userSpaceOnUse" x="0" y="80" width="29" height="32">
<path d="M9.42579 82.0223C7.49968 82.8034 5.84277 83.8726 4.46265 85.2262C3.07873 86.5798 1.99056 88.2063 1.19433 90.0945C0.39811 91.9865 0 94.0074 0 96.1572C0 98.307 0.39811 100.328 1.19433 102.22C1.99056 104.112 3.07873 105.735 4.46265 107.088C5.84656 108.442 7.49968 109.515 9.42579 110.303C11.3519 111.092 13.4107 111.486 15.606 111.486C18.3435 111.486 20.8573 110.891 23.1474 109.704C25.4375 108.518 27.2726 106.891 28.6565 104.825L23.5455 101.663C22.681 102.948 21.5549 103.953 20.1748 104.677C18.7909 105.405 17.2705 105.765 15.6098 105.765C12.9026 105.765 10.6353 104.847 8.81155 103.009C6.98782 101.173 6.07785 98.8871 6.07785 96.1496C6.07785 93.4121 6.98782 91.1296 8.81155 89.3021C10.6353 87.4708 12.8988 86.557 15.6098 86.557C17.2705 86.557 18.7947 86.921 20.1748 87.6452C21.5587 88.3732 22.681 89.3779 23.5455 90.6632L28.6565 87.5011C27.2726 85.4347 25.4375 83.8081 23.1474 82.6214C20.8573 81.4346 18.3435 80.8394 15.606 80.8394C13.4145 80.8507 11.3519 81.2413 9.42579 82.0223Z" fill="white"/>
</mask>
<g mask="url(#mask1_11_4220)">
<path d="M28.6527 80.8516H-6.10352e-05V111.495H28.6527V80.8516Z" fill="white"/>
</g>
<mask id="mask2_11_4220" style="mask-type:luminance" maskUnits="userSpaceOnUse" x="31" y="80" width="25" height="32">
<path d="M37.726 86.4213H44.2816C45.4418 86.4213 46.4124 86.8195 47.1935 87.6157C47.9745 88.4119 48.3651 89.4053 48.3651 90.592C48.3651 91.7788 47.9745 92.7684 47.1935 93.557C46.4124 94.3457 45.4418 94.74 44.2816 94.74H37.726V86.4213ZM31.7998 80.8516V111.495H37.726V99.8889H41.2445L48.6077 111.495H55.7283L47.8001 99.4301C49.7983 98.8007 51.4059 97.6898 52.6306 96.0898C53.8514 94.4898 54.4619 92.6433 54.4619 90.5503C54.4619 87.7863 53.4988 85.4773 51.5727 83.627C49.6466 81.7767 47.2579 80.8516 44.4105 80.8516H31.7998Z" fill="white"/>
</mask>
<g mask="url(#mask2_11_4220)">
<path d="M55.732 80.8516H31.7998V111.495H55.732V80.8516Z" fill="white"/>
</g>
<mask id="mask3_11_4220" style="mask-type:luminance" maskUnits="userSpaceOnUse" x="53" y="80" width="30" height="32">
<path d="M76.1646 80.8516L68.3502 94.0689L60.5586 80.8516H53.7717L65.3132 100.06V111.495H71.2204V100.06L82.7619 80.8516H76.1646Z" fill="white"/>
</mask>
<g mask="url(#mask3_11_4220)">
<path d="M82.7619 80.8516H53.7717V111.495H82.7619V80.8516Z" fill="white"/>
</g>
<mask id="mask4_11_4220" style="mask-type:luminance" maskUnits="userSpaceOnUse" x="81" y="80" width="25" height="32">
<path d="M85.7155 83.2358C83.634 84.8283 82.5951 86.9364 82.5951 89.5601C82.5951 90.5649 82.7733 91.5052 83.1297 92.3772C83.4861 93.2493 83.9714 94.0152 84.5857 94.6711C85.1999 95.3271 85.9506 95.9261 86.8378 96.4608C87.7251 96.9992 88.6654 97.4503 89.655 97.8105C90.6446 98.1745 91.7289 98.4968 92.9005 98.7736C93.5148 98.929 93.9584 99.0352 94.2314 99.0997C94.5043 99.1603 94.9138 99.2779 95.4674 99.4447C96.0172 99.6115 96.4305 99.7556 96.7034 99.8731C96.9764 99.9907 97.3101 100.161 97.7082 100.377C98.1063 100.594 98.3945 100.81 98.5765 101.026C98.7585 101.242 98.9215 101.5 99.0694 101.799C99.2172 102.099 99.2893 102.425 99.2893 102.774C99.2893 103.778 98.7585 104.605 97.6968 105.246C96.6352 105.887 95.3499 106.209 93.8408 106.209C92.2067 106.209 90.5611 105.856 88.908 105.151C87.2549 104.446 85.8103 103.505 84.5819 102.334L81.5221 106.838C83.0311 108.249 84.8966 109.375 87.126 110.22C89.3554 111.066 91.5924 111.487 93.8408 111.487C95.9906 111.487 97.9433 111.111 99.695 110.364C101.447 109.617 102.834 108.556 103.854 107.179C104.874 105.803 105.382 104.252 105.382 102.52C105.382 101.583 105.223 100.707 104.912 99.8921C104.597 99.0769 104.203 98.3755 103.729 97.7992C103.255 97.219 102.668 96.6769 101.97 96.1764C101.272 95.6721 100.605 95.2664 99.968 94.9517C99.331 94.637 98.6296 94.3489 97.8637 94.0834C97.094 93.818 96.4797 93.6247 96.0096 93.5071C95.5394 93.3896 95.0503 93.2721 94.5347 93.1621C93.7385 92.9801 93.0408 92.7943 92.4417 92.6085C91.8427 92.419 91.2322 92.1763 90.618 91.8768C90.0038 91.5772 89.5298 91.2095 89.1924 90.7772C88.8587 90.345 88.6881 89.8559 88.6881 89.3099C88.6881 88.3886 89.1621 87.6264 90.1137 87.0274C91.0616 86.4283 92.2787 86.125 93.7574 86.125C95.1944 86.125 96.6011 86.3942 97.9774 86.9326C99.3537 87.471 100.472 88.1573 101.341 88.9952L104.086 84.5325C102.956 83.414 101.5 82.523 99.7177 81.8519C97.9395 81.1808 95.9793 80.8472 93.8408 80.8472C90.5081 80.851 87.7971 81.6472 85.7155 83.2358Z" fill="white"/>
</mask>
<g mask="url(#mask4_11_4220)">
<path d="M105.387 80.8511H81.5266V111.494H105.387V80.8511Z" fill="white"/>
</g>
<mask id="mask5_11_4220" style="mask-type:luminance" maskUnits="userSpaceOnUse" x="105" y="80" width="24" height="32">
<path d="M105.742 80.8516V86.4213H114.33V111.495H120.237V86.4213H128.784V80.8516H105.742Z" fill="white"/>
</mask>
<g mask="url(#mask5_11_4220)">
<path d="M128.784 80.8516H105.742V111.495H128.784V80.8516Z" fill="white"/>
</g>
<mask id="mask6_11_4220" style="mask-type:luminance" maskUnits="userSpaceOnUse" x="125" y="80" width="31" height="32">
<path d="M140.306 87.5967L144.64 99.8927H135.927L140.306 87.5967ZM136.871 80.8516L125.477 111.495H131.866L133.959 105.553H146.653L148.769 111.495H155.241L143.866 80.8516H136.871Z" fill="white"/>
</mask>
<g mask="url(#mask6_11_4220)">
<path d="M155.237 80.8516H125.473V111.495H155.237V80.8516Z" fill="white"/>
</g>
<mask id="mask7_11_4220" style="mask-type:luminance" maskUnits="userSpaceOnUse" x="157" y="60" width="20" height="52">
<path d="M157.857 60.2173V80.8509H157.838V111.494H176.671V105.921H163.765V80.8509H163.749V60.2173H157.857Z" fill="white"/>
</mask>
<g mask="url(#mask7_11_4220)">
<path d="M176.667 60.2173H157.838V111.494H176.667V60.2173Z" fill="white"/>
</g>
<mask id="mask8_11_4220" style="mask-type:luminance" maskUnits="userSpaceOnUse" x="188" y="80" width="21" height="32">
<path d="M188.735 80.8516V111.495H208.865V105.921H194.665V98.8652H207.231V93.2916H194.665V86.4213H208.656V80.8516H188.735Z" fill="white"/>
</mask>
<g mask="url(#mask8_11_4220)">
<path d="M208.865 80.8516H188.735V111.495H208.865V80.8516Z" fill="white"/>
</g>
<mask id="mask9_11_4220" style="mask-type:luminance" maskUnits="userSpaceOnUse" x="212" y="80" width="25" height="32">
<path d="M230.86 80.8516V99.4301C230.86 101.231 230.253 102.74 229.036 103.953C227.823 105.167 226.306 105.777 224.49 105.777C222.674 105.777 221.161 105.171 219.955 103.953C218.749 102.736 218.143 101.231 218.143 99.4301V80.8516H212.236V99.5136C212.236 101.762 212.766 103.802 213.828 105.629C214.89 107.457 216.357 108.894 218.226 109.933C220.095 110.972 222.185 111.495 224.49 111.495C226.795 111.495 228.88 110.975 230.754 109.933C232.623 108.894 234.094 107.457 235.163 105.629C236.232 103.798 236.767 101.762 236.767 99.5136V80.8516H230.86Z" fill="white"/>
</mask>
<g mask="url(#mask9_11_4220)">
<path d="M236.767 80.8516H212.239V111.495H236.767V80.8516Z" fill="white"/>
</g>
<mask id="mask10_11_4220" style="mask-type:luminance" maskUnits="userSpaceOnUse" x="241" y="80" width="25" height="32">
<path d="M247.262 86.4213H253.818C254.978 86.4213 255.949 86.8195 256.73 87.6157C257.511 88.4119 257.901 89.4053 257.901 90.592C257.901 91.7788 257.511 92.7684 256.73 93.557C255.949 94.3457 254.978 94.74 253.818 94.74H247.262V86.4213ZM241.336 80.8516V111.495H247.262V99.8889H250.781L258.178 111.495H265.299L257.336 99.4301C259.335 98.8007 260.942 97.6898 262.163 96.0898C263.384 94.4898 263.994 92.6433 263.994 90.5503C263.994 87.7863 263.031 85.4773 261.105 83.627C259.179 81.7767 256.79 80.8516 253.943 80.8516H241.336Z" fill="white"/>
</mask>
<g mask="url(#mask10_11_4220)">
<path d="M265.302 80.8516H241.336V111.495H265.302V80.8516Z" fill="white"/>
</g>
<mask id="mask11_11_4220" style="mask-type:luminance" maskUnits="userSpaceOnUse" x="265" y="80" width="33" height="32">
<path d="M274.652 103.02C272.832 101.185 271.919 98.8986 271.919 96.1611C271.919 93.4236 272.829 91.1411 274.652 89.3136C276.476 87.4822 278.74 86.5685 281.45 86.5685C284.161 86.5685 286.425 87.4822 288.249 89.3136C290.072 91.1411 290.982 93.4274 290.982 96.1611C290.982 98.8986 290.072 101.185 288.249 103.02C286.425 104.855 284.161 105.776 281.45 105.776C278.74 105.776 276.472 104.859 274.652 103.02ZM275.27 82.0224C273.344 82.8035 271.687 83.8727 270.307 85.2263C268.923 86.5799 267.835 88.2064 267.039 90.0946C266.243 91.9866 265.844 94.0075 265.844 96.1573C265.844 98.3071 266.243 100.328 267.039 102.22C267.835 104.112 268.923 105.735 270.307 107.088C271.691 108.442 273.344 109.515 275.27 110.304C277.196 111.092 279.259 111.487 281.45 111.487C283.642 111.487 285.705 111.092 287.642 110.304C289.576 109.515 291.229 108.442 292.605 107.088C293.982 105.735 295.07 104.112 295.874 102.22C296.677 100.328 297.079 98.3071 297.079 96.1573C297.079 93.2947 296.401 90.6937 295.036 88.3543C293.674 86.0149 291.798 84.1798 289.413 82.8452C287.024 81.5106 284.37 80.8433 281.454 80.8433C279.255 80.8508 277.196 81.2414 275.27 82.0224Z" fill="white"/>
</mask>
<g mask="url(#mask11_11_4220)">
<path d="M297.075 80.8521H265.844V111.495H297.075V80.8521Z" fill="white"/>
</g>
<mask id="mask12_11_4220" style="mask-type:luminance" maskUnits="userSpaceOnUse" x="172" y="66" width="9" height="10">
<path d="M172.478 68.4904L175.45 75.736L180.891 73.3777L177.862 66.1548L172.478 68.4904Z" fill="white"/>
</mask>
<g mask="url(#mask12_11_4220)">
<path d="M180.895 66.1548H172.478V75.736H180.895V66.1548Z" fill="white"/>
</g>
<mask id="mask13_11_4220" style="mask-type:luminance" maskUnits="userSpaceOnUse" x="179" y="50" width="12" height="13">
<path d="M179.075 55.0986L186.54 62.5718L190.764 58.1849L183.314 50.708L179.075 55.0986Z" fill="white"/>
</mask>
<g mask="url(#mask13_11_4220)">
<path d="M190.764 50.708H179.075V62.5718H190.764V50.708Z" fill="white"/>
</g>
<mask id="mask14_11_4220" style="mask-type:luminance" maskUnits="userSpaceOnUse" x="127" y="55" width="11" height="11">
<path d="M127.388 61.3546L131.938 65.984L137.349 60.4749L132.924 55.7886L127.388 61.3546Z" fill="white"/>
</mask>
<g mask="url(#mask14_11_4220)">
<path d="M137.349 55.7886H127.388V65.984H137.349V55.7886Z" fill="white"/>
</g>
<mask id="mask15_11_4220" style="mask-type:luminance" maskUnits="userSpaceOnUse" x="185" y="15" width="11" height="10">
<path d="M185.642 18.9545L187.955 24.4977L195.314 21.582L192.838 15.853L185.642 18.9545Z" fill="white"/>
</mask>
<g mask="url(#mask15_11_4220)">
<path d="M195.314 15.853H185.642V24.4977H195.314V15.853Z" fill="white"/>
</g>
<mask id="mask16_11_4220" style="mask-type:luminance" maskUnits="userSpaceOnUse" x="121" y="29" width="9" height="7">
<path d="M129.148 29.4868H121.701V35.2727H129.148V29.4868Z" fill="white"/>
</mask>
<g mask="url(#mask16_11_4220)">
<path d="M129.148 29.4868H121.701V35.2727H129.148V29.4868Z" fill="white"/>
</g>
<mask id="mask17_11_4220" style="mask-type:luminance" maskUnits="userSpaceOnUse" x="126" y="0" width="70" height="77">
<path d="M163.461 17.9037C163.461 17.9037 162.449 21.081 164.712 23.2649C165.016 23.5569 165.387 23.864 165.793 24.1976C168.709 25.9418 170.661 29.1267 170.661 32.7703C170.661 38.2832 166.191 42.7535 160.678 42.7535C155.165 42.7535 150.695 38.2832 150.695 32.7703C150.695 29.1835 152.587 26.0403 155.427 24.2811C155.882 23.9095 156.299 23.5796 156.633 23.2649C158.892 21.1606 157.85 17.9037 157.85 17.9037L151.715 3.17731L146.513 5.37261L152.481 20.0535L143.476 11.2116L139.453 15.3975L148.371 24.0536L134.243 18.2904L132.048 23.6517L146.024 29.4831H133.686V35.269H145.944L126.035 43.3942L128.552 49.0816L148.03 40.5923L135.984 52.6949L140.39 57.3585L152.451 45.0777L140.17 73.7797L145.702 76.3807L157.846 47.2654V55.6599H163.738V47.2123L170.813 64.4487L176.167 62.1245L168.985 45.0019L175.985 52.0086L180.224 47.6142L173.266 40.634L193.153 49.1536L195.306 43.5876L175.359 35.4055H194.048V29.4906H175.325L183.898 26.0934L181.634 20.6715L173.156 24.3266L182.916 15.0297L178.04 10.4798L169.035 20.1634L176.333 2.35455L170.43 0L163.461 17.9037Z" fill="white"/>
</mask>
<g mask="url(#mask17_11_4220)">
<path d="M195.315 0.00976562H126.048V76.3867H195.315V0.00976562Z" fill="white"/>
</g>
<path d="M269.073 139.653C268.831 138.914 268.513 138.251 268.117 137.666C267.729 137.073 267.264 136.567 266.723 136.15C266.188 135.733 265.581 135.414 264.9 135.195C264.219 134.975 263.472 134.865 262.659 134.865C261.327 134.865 260.115 135.209 259.024 135.897C257.933 136.586 257.066 137.6 256.422 138.939C255.777 140.279 255.455 141.923 255.455 143.87C255.455 145.818 255.781 147.461 256.433 148.801C257.084 150.141 257.966 151.155 259.079 151.843C260.192 152.531 261.444 152.875 262.835 152.875C264.124 152.875 265.258 152.601 266.239 152.052C267.228 151.495 267.997 150.712 268.546 149.702C269.102 148.684 269.38 147.487 269.38 146.111L270.215 146.286H263.45V143.87H272.016V146.286C272.016 148.139 271.621 149.749 270.83 151.118C270.046 152.487 268.963 153.549 267.579 154.303C266.203 155.05 264.621 155.423 262.835 155.423C260.844 155.423 259.094 154.955 257.586 154.018C256.085 153.08 254.913 151.748 254.072 150.02C253.237 148.292 252.82 146.242 252.82 143.87C252.82 142.091 253.058 140.492 253.533 139.071C254.017 137.644 254.697 136.428 255.576 135.425C256.455 134.422 257.494 133.654 258.695 133.119C259.896 132.585 261.217 132.317 262.659 132.317C263.845 132.317 264.951 132.497 265.976 132.855C267.008 133.207 267.927 133.708 268.732 134.36C269.545 135.004 270.222 135.777 270.764 136.677C271.306 137.57 271.679 138.562 271.884 139.653H269.073Z" fill="white"/>
<path d="M248.248 132.625V155.116H245.613L233.357 137.457H233.137V155.116H230.414V132.625H233.05L245.349 150.328H245.569V132.625H248.248Z" fill="white"/>
<path d="M224.953 132.625V155.116H222.229V132.625H224.953Z" fill="white"/>
<path d="M201.158 135.041V132.625H218.026V135.041H210.954V155.116H208.23V135.041H201.158Z" fill="white"/>
<path d="M179.496 155.116V132.625H182.22V142.64H194.212V132.625H196.935V155.116H194.212V145.056H182.22V155.116H179.496Z" fill="white"/>
<path d="M171.888 139.653C171.647 138.914 171.328 138.251 170.933 137.666C170.545 137.073 170.08 136.567 169.538 136.15C169.004 135.733 168.396 135.414 167.715 135.195C167.034 134.975 166.288 134.865 165.475 134.865C164.142 134.865 162.931 135.209 161.84 135.897C160.749 136.586 159.881 137.6 159.237 138.939C158.593 140.279 158.271 141.923 158.271 143.87C158.271 145.818 158.597 147.461 159.248 148.801C159.9 150.141 160.782 151.155 161.895 151.843C163.008 152.531 164.26 152.875 165.651 152.875C166.939 152.875 168.074 152.601 169.055 152.052C170.043 151.495 170.812 150.712 171.361 149.702C171.918 148.684 172.196 147.487 172.196 146.111L173.03 146.286H166.266V143.87H174.831V146.286C174.831 148.139 174.436 149.749 173.645 151.118C172.862 152.487 171.778 153.549 170.395 154.303C169.018 155.05 167.437 155.423 165.651 155.423C163.659 155.423 161.909 154.955 160.401 154.018C158.9 153.08 157.729 151.748 156.887 150.02C156.052 148.292 155.635 146.242 155.635 143.87C155.635 142.091 155.873 140.492 156.349 139.071C156.832 137.644 157.513 136.428 158.392 135.425C159.27 134.422 160.31 133.654 161.51 133.119C162.711 132.585 164.033 132.317 165.475 132.317C166.661 132.317 167.766 132.497 168.791 132.855C169.824 133.207 170.743 133.708 171.548 134.36C172.361 135.004 173.038 135.777 173.58 136.677C174.121 137.57 174.495 138.562 174.7 139.653H171.888Z" fill="white"/>
<path d="M151.053 132.625V155.116H148.33V132.625H151.053Z" fill="white"/>
<path d="M130.935 155.116V132.625H133.658V152.7H144.113V155.116H130.935Z" fill="white"/>
<path d="M106.95 155.116H100.01V132.625H107.258C109.44 132.625 111.306 133.075 112.859 133.976C114.411 134.869 115.6 136.154 116.428 137.83C117.255 139.5 117.669 141.498 117.669 143.827C117.669 146.169 117.251 148.186 116.417 149.878C115.582 151.561 114.367 152.857 112.771 153.765C111.175 154.666 109.235 155.116 106.95 155.116ZM102.733 152.7H106.775C108.634 152.7 110.175 152.341 111.398 151.624C112.621 150.906 113.532 149.885 114.132 148.56C114.733 147.235 115.033 145.657 115.033 143.827C115.033 142.011 114.736 140.448 114.143 139.137C113.55 137.819 112.665 136.809 111.486 136.106C110.307 135.396 108.839 135.041 107.082 135.041H102.733V152.7Z" fill="white"/>
<path d="M81.527 155.116V132.625H95.1006V135.041H84.2505V142.64H94.3977V145.056H84.2505V152.7H95.2763V155.116H81.527Z" fill="white"/>
<path d="M64.1316 155.116V132.625H66.8551V152.7H77.3098V155.116H64.1316Z" fill="white"/>
</svg>
