<svg width="148" height="78" viewBox="0 0 148 78" fill="none" xmlns="http://www.w3.org/2000/svg">
<mask id="mask0_35_4459" style="mask-type:luminance" maskUnits="userSpaceOnUse" x="65" y="1" width="5" height="6">
<path d="M67.5458 1.72444L65.5229 3.83607L67.916 6.15924L69.9294 4.06461L67.5458 1.72444Z" fill="white"/>
</mask>
<g mask="url(#mask0_35_4459)">
<path d="M69.9294 1.72444H65.5229V6.15924H69.9294V1.72444Z" fill="url(#paint0_linear_35_4459)"/>
</g>
<mask id="mask1_35_4459" style="mask-type:luminance" maskUnits="userSpaceOnUse" x="0" y="40" width="15" height="16">
<path d="M4.69545 40.8595C3.73596 41.2485 2.91057 41.7812 2.22306 42.4555C1.53367 43.1297 0.991596 43.94 0.594957 44.8806C0.198318 45.8231 0 46.8298 0 47.9007C0 48.9717 0.198318 49.9784 0.594957 50.9209C0.991596 51.8633 1.53367 52.6717 2.22306 53.346C2.91246 54.0203 3.73596 54.5548 4.69545 54.9477C5.65494 55.3406 6.68053 55.537 7.77412 55.537C9.1378 55.537 10.39 55.2404 11.5309 54.6493C12.6717 54.0581 13.5858 53.2478 14.2752 52.2184L11.7292 50.6432C11.2985 51.2835 10.7376 51.784 10.0501 52.1448C9.36067 52.5074 8.60328 52.6868 7.77601 52.6868C6.42744 52.6868 5.29796 52.2298 4.38947 51.3137C3.48098 50.3996 3.02768 49.2606 3.02768 47.897C3.02768 46.5333 3.48098 45.3962 4.38947 44.4859C5.29796 43.5736 6.42555 43.1184 7.77601 43.1184C8.60328 43.1184 9.36256 43.2997 10.0501 43.6605C10.7395 44.0231 11.2985 44.5236 11.7292 45.1639L14.2752 43.5887C13.5858 42.5593 12.6717 41.7491 11.5309 41.1579C10.39 40.5667 9.1378 40.2702 7.77412 40.2702C6.68242 40.2758 5.65494 40.4704 4.69545 40.8595Z" fill="white"/>
</mask>
<g mask="url(#mask1_35_4459)">
<path d="M14.2733 40.2761H-6.10352e-05V55.541H14.2733V40.2761Z" fill="url(#paint1_linear_35_4459)"/>
</g>
<mask id="mask2_35_4459" style="mask-type:luminance" maskUnits="userSpaceOnUse" x="15" y="40" width="13" height="16">
<path d="M18.7931 43.0504H22.0588C22.6367 43.0504 23.1203 43.2487 23.5093 43.6454C23.8984 44.042 24.093 44.5369 24.093 45.128C24.093 45.7192 23.8984 46.2122 23.5093 46.605C23.1203 46.9979 22.6367 47.1943 22.0588 47.1943H18.7931V43.0504ZM15.841 40.2758V55.5407H18.7931V49.7593H20.5459L24.2139 55.5407H27.7609L23.8116 49.5307C24.8069 49.2172 25.6078 48.6638 26.2178 47.8667C26.826 47.0697 27.1301 46.1499 27.1301 45.1073C27.1301 43.7304 26.6504 42.5801 25.6909 41.6584C24.7314 40.7367 23.5415 40.2758 22.123 40.2758H15.841Z" fill="white"/>
</mask>
<g mask="url(#mask2_35_4459)">
<path d="M27.7628 40.2758H15.841V55.5407H27.7628V40.2758Z" fill="url(#paint2_linear_35_4459)"/>
</g>
<mask id="mask3_35_4459" style="mask-type:luminance" maskUnits="userSpaceOnUse" x="26" y="40" width="16" height="16">
<path d="M37.9413 40.2758L34.0486 46.86L30.1672 40.2758H26.7863L32.5357 49.8443V55.5407H35.4784V49.8443L41.2277 40.2758H37.9413Z" fill="white"/>
</mask>
<g mask="url(#mask3_35_4459)">
<path d="M41.2277 40.2758H26.7863V55.5407H41.2277V40.2758Z" fill="url(#paint3_linear_35_4459)"/>
</g>
<mask id="mask4_35_4459" style="mask-type:luminance" maskUnits="userSpaceOnUse" x="40" y="40" width="13" height="16">
<path d="M42.6991 41.4639C41.6621 42.2571 41.1446 43.3073 41.1446 44.6143C41.1446 45.1148 41.2334 45.5832 41.4109 46.0176C41.5885 46.4521 41.8302 46.8336 42.1362 47.1603C42.4422 47.4871 42.8162 47.7855 43.2581 48.0518C43.7001 48.32 44.1685 48.5448 44.6615 48.7242C45.1545 48.9056 45.6946 49.0661 46.2783 49.204C46.5842 49.2814 46.8052 49.3343 46.9412 49.3664C47.0772 49.3966 47.2812 49.4552 47.557 49.5383C47.8308 49.6214 48.0367 49.6932 48.1727 49.7517C48.3087 49.8103 48.4749 49.8953 48.6732 50.0029C48.8715 50.1106 49.0151 50.2182 49.1057 50.3259C49.1964 50.4336 49.2776 50.562 49.3513 50.7112C49.4249 50.8604 49.4608 51.0228 49.4608 51.1966C49.4608 51.6971 49.1964 52.1089 48.6675 52.4281C48.1387 52.7473 47.4984 52.9078 46.7467 52.9078C45.9326 52.9078 45.1129 52.7322 44.2894 52.3809C43.4659 52.0296 42.7463 51.5611 42.1343 50.9775L40.6101 53.2214C41.3618 53.924 42.2911 54.4849 43.4017 54.9061C44.5123 55.3273 45.6266 55.537 46.7467 55.537C47.8176 55.537 48.7903 55.35 49.6629 54.9779C50.5355 54.6058 51.2268 54.077 51.7349 53.3913C52.243 52.7057 52.496 51.9332 52.496 51.0701C52.496 50.6035 52.4167 50.1672 52.2618 49.7612C52.1051 49.3551 51.9086 49.0057 51.6726 48.7186C51.4365 48.4296 51.1437 48.1595 50.7962 47.9102C50.4486 47.659 50.1162 47.4569 49.7989 47.3001C49.4816 47.1433 49.1322 46.9998 48.7506 46.8676C48.3672 46.7354 48.0612 46.639 47.827 46.5805C47.5928 46.5219 47.3492 46.4634 47.0923 46.4086C46.6957 46.318 46.3481 46.2254 46.0497 46.1329C45.7513 46.0384 45.4472 45.9175 45.1412 45.7683C44.8353 45.6191 44.5992 45.4359 44.4311 45.2206C44.2649 45.0053 44.1799 44.7616 44.1799 44.4897C44.1799 44.0307 44.416 43.651 44.89 43.3526C45.3622 43.0542 45.9685 42.9031 46.7051 42.9031C47.421 42.9031 48.1217 43.0372 48.8073 43.3054C49.4929 43.5736 50.0501 43.9155 50.4826 44.3329L51.8501 42.1098C51.2872 41.5526 50.562 41.1088 49.6742 40.7745C48.7884 40.4402 47.8119 40.2739 46.7467 40.2739C45.0865 40.2758 43.736 40.6725 42.6991 41.4639Z" fill="white"/>
</mask>
<g mask="url(#mask4_35_4459)">
<path d="M52.4982 40.276H40.6123V55.541H52.4982V40.276Z" fill="url(#paint4_linear_35_4459)"/>
</g>
<mask id="mask5_35_4459" style="mask-type:luminance" maskUnits="userSpaceOnUse" x="52" y="40" width="13" height="16">
<path d="M52.6754 40.2758V43.0504H56.9534V55.5407H59.8961V43.0504H64.1534V40.2758H52.6754Z" fill="white"/>
</mask>
<g mask="url(#mask5_35_4459)">
<path d="M64.1534 40.2758H52.6754V55.5407H64.1534V40.2758Z" fill="url(#paint5_linear_35_4459)"/>
</g>
<mask id="mask6_35_4459" style="mask-type:luminance" maskUnits="userSpaceOnUse" x="62" y="40" width="16" height="16">
<path d="M69.8934 43.6359L72.0522 49.7612H67.7119L69.8934 43.6359ZM68.1822 40.2758L62.5065 55.5407H65.689L66.7316 52.5811H73.0552L74.1091 55.5407H77.3332L71.6669 40.2758H68.1822Z" fill="white"/>
</mask>
<g mask="url(#mask6_35_4459)">
<path d="M77.3312 40.2758H62.5045V55.5408H77.3312V40.2758Z" fill="url(#paint6_linear_35_4459)"/>
</g>
<mask id="mask7_35_4459" style="mask-type:luminance" maskUnits="userSpaceOnUse" x="78" y="29" width="11" height="27">
<path d="M78.6365 29.9972V40.2758H78.6271V55.5408H88.0085V52.7643H81.5792V40.2758H81.5716V29.9972H78.6365Z" fill="white"/>
</mask>
<g mask="url(#mask7_35_4459)">
<path d="M88.0066 29.9972H78.6271V55.5408H88.0066V29.9972Z" fill="url(#paint7_linear_35_4459)"/>
</g>
<mask id="mask8_35_4459" style="mask-type:luminance" maskUnits="userSpaceOnUse" x="94" y="40" width="11" height="16">
<path d="M94.0184 40.2758V55.5407H104.046V52.7643H96.9724V49.2493H103.232V46.4728H96.9724V43.0504H103.942V40.2758H94.0184Z" fill="white"/>
</mask>
<g mask="url(#mask8_35_4459)">
<path d="M104.046 40.2758H94.0184V55.5407H104.046V40.2758Z" fill="url(#paint8_linear_35_4459)"/>
</g>
<mask id="mask9_35_4459" style="mask-type:luminance" maskUnits="userSpaceOnUse" x="105" y="40" width="13" height="16">
<path d="M115.003 40.2758V49.5307C115.003 50.4279 114.7 51.1796 114.094 51.784C113.49 52.3884 112.734 52.6925 111.829 52.6925C110.925 52.6925 110.171 52.3903 109.57 51.784C108.97 51.1777 108.668 50.4279 108.668 49.5307V40.2758H105.725V49.5723C105.725 50.6923 105.989 51.7085 106.518 52.6188C107.047 53.5292 107.778 54.2451 108.709 54.7626C109.64 55.2801 110.681 55.5407 111.829 55.5407C112.978 55.5407 114.017 55.282 114.95 54.7626C115.881 54.2451 116.614 53.5292 117.146 52.6188C117.679 51.7066 117.945 50.6923 117.945 49.5723V40.2758H115.003Z" fill="white"/>
</mask>
<g mask="url(#mask9_35_4459)">
<path d="M117.945 40.2758H105.727V55.5408H117.945V40.2758Z" fill="url(#paint9_linear_35_4459)"/>
</g>
<mask id="mask10_35_4459" style="mask-type:luminance" maskUnits="userSpaceOnUse" x="120" y="40" width="13" height="16">
<path d="M123.173 43.0504H126.439C127.017 43.0504 127.501 43.2487 127.89 43.6454C128.279 44.042 128.473 44.5369 128.473 45.128C128.473 45.7192 128.279 46.2122 127.89 46.605C127.501 46.9979 127.017 47.1943 126.439 47.1943H123.173V43.0504ZM120.221 40.2758V55.5407H123.173V49.7593H124.926L128.611 55.5407H132.158L128.192 49.5307C129.187 49.2172 129.988 48.6638 130.596 47.8667C131.204 47.0697 131.509 46.1499 131.509 45.1073C131.509 43.7304 131.029 42.5801 130.069 41.6584C129.11 40.7367 127.92 40.2758 126.501 40.2758H120.221Z" fill="white"/>
</mask>
<g mask="url(#mask10_35_4459)">
<path d="M132.16 40.2758H120.221V55.5407H132.16V40.2758Z" fill="url(#paint10_linear_35_4459)"/>
</g>
<mask id="mask11_35_4459" style="mask-type:luminance" maskUnits="userSpaceOnUse" x="132" y="40" width="16" height="16">
<path d="M136.818 51.3194C135.911 50.4052 135.456 49.2663 135.456 47.9026C135.456 46.5389 135.909 45.4019 136.818 44.4915C137.726 43.5793 138.854 43.1241 140.204 43.1241C141.555 43.1241 142.682 43.5793 143.591 44.4915C144.499 45.4019 144.953 46.5408 144.953 47.9026C144.953 49.2663 144.499 50.4052 143.591 51.3194C142.682 52.2335 141.555 52.6925 140.204 52.6925C138.854 52.6925 137.724 52.2354 136.818 51.3194ZM137.126 40.8595C136.166 41.2485 135.341 41.7812 134.653 42.4555C133.964 43.1297 133.422 43.94 133.025 44.8806C132.628 45.8231 132.43 46.8298 132.43 47.9007C132.43 48.9717 132.628 49.9784 133.025 50.9209C133.422 51.8633 133.964 52.6717 134.653 53.346C135.343 54.0203 136.166 54.5548 137.126 54.9477C138.085 55.3406 139.113 55.537 140.204 55.537C141.296 55.537 142.323 55.3406 143.289 54.9477C144.252 54.5548 145.075 54.0203 145.761 53.346C146.447 52.6717 146.989 51.8633 147.389 50.9209C147.79 49.9784 147.99 48.9717 147.99 47.9007C147.99 46.4747 147.652 45.179 146.972 44.0137C146.294 42.8483 145.359 41.9342 144.171 41.2693C142.981 40.6045 141.659 40.2721 140.206 40.2721C139.111 40.2758 138.085 40.4704 137.126 40.8595Z" fill="white"/>
</mask>
<g mask="url(#mask11_35_4459)">
<path d="M147.988 40.2764H132.43V55.5414H147.988V40.2764Z" fill="url(#paint11_linear_35_4459)"/>
</g>
<mask id="mask12_35_4459" style="mask-type:luminance" maskUnits="userSpaceOnUse" x="85" y="32" width="6" height="6">
<path d="M85.9196 34.1185L87.4003 37.7279L90.1107 36.5531L88.6016 32.955L85.9196 34.1185Z" fill="white"/>
</mask>
<g mask="url(#mask12_35_4459)">
<path d="M90.1126 32.955H85.9196V37.7279H90.1126V32.955Z" fill="url(#paint12_linear_35_4459)"/>
</g>
<mask id="mask13_35_4459" style="mask-type:luminance" maskUnits="userSpaceOnUse" x="89" y="25" width="7" height="7">
<path d="M89.2059 27.4474L92.9249 31.1701L95.029 28.9848L91.3176 25.2602L89.2059 27.4474Z" fill="white"/>
</mask>
<g mask="url(#mask13_35_4459)">
<path d="M95.029 25.2602H89.2059V31.1701H95.029V25.2602Z" fill="url(#paint13_linear_35_4459)"/>
</g>
<mask id="mask14_35_4459" style="mask-type:luminance" maskUnits="userSpaceOnUse" x="63" y="27" width="6" height="6">
<path d="M63.4585 30.5639L65.725 32.87L68.4203 30.1257L66.2161 27.7912L63.4585 30.5639Z" fill="white"/>
</mask>
<g mask="url(#mask14_35_4459)">
<path d="M68.4203 27.7912H63.4585V32.87H68.4203V27.7912Z" fill="url(#paint14_linear_35_4459)"/>
</g>
<mask id="mask15_35_4459" style="mask-type:luminance" maskUnits="userSpaceOnUse" x="92" y="7" width="6" height="6">
<path d="M92.4773 9.4419L93.6294 12.2033L97.2955 10.7508L96.0622 7.8969L92.4773 9.4419Z" fill="white"/>
</mask>
<g mask="url(#mask15_35_4459)">
<path d="M97.2955 7.8969H92.4773V12.2033H97.2955V7.8969Z" fill="url(#paint15_linear_35_4459)"/>
</g>
<mask id="mask16_35_4459" style="mask-type:luminance" maskUnits="userSpaceOnUse" x="60" y="14" width="5" height="4">
<path d="M64.3348 14.6889H60.6252V17.5711H64.3348V14.6889Z" fill="white"/>
</mask>
<g mask="url(#mask16_35_4459)">
<path d="M64.3348 14.6889H60.6252V17.5711H64.3348V14.6889Z" fill="url(#paint16_linear_35_4459)"/>
</g>
<mask id="mask17_35_4459" style="mask-type:luminance" maskUnits="userSpaceOnUse" x="62" y="0" width="36" height="39">
<path d="M81.4281 8.9187C81.4281 8.9187 80.9238 10.5015 82.0514 11.5894C82.2025 11.7348 82.3876 11.8878 82.5897 12.054C84.0421 12.9229 85.0148 14.5094 85.0148 16.3245C85.0148 19.0708 82.788 21.2976 80.0417 21.2976C77.2955 21.2976 75.0686 19.0708 75.0686 16.3245C75.0686 14.5378 76.0111 12.972 77.4258 12.0956C77.6525 11.9105 77.8602 11.7462 78.0264 11.5894C79.1521 10.5411 78.6327 8.9187 78.6327 8.9187L75.5767 1.58277L72.9853 2.67636L75.9583 9.98963L71.4725 5.58505L69.4685 7.67023L73.9108 11.9823L66.8733 9.11136L65.7797 11.7821L72.7417 14.687H66.5957V17.5692H72.702L62.7842 21.6168L64.0383 24.4499L73.7408 20.221L67.7403 26.2499L69.935 28.5731L75.9431 22.4554L69.8255 36.7533L72.5812 38.049L78.6308 23.5452V27.7269H81.566V23.5188L85.0904 32.1051L87.7573 30.9473L84.18 22.4176L87.6666 25.9081L89.7783 23.719L86.3124 20.2418L96.2189 24.4858L97.2917 21.7131L87.355 17.6372H96.6647V14.6907H87.338L91.6085 12.9984L90.4809 10.2975L86.2576 12.1183L91.1193 7.48702L88.6904 5.22052L84.2046 10.0444L87.8404 1.17292L84.8996 0L81.4281 8.9187Z" fill="white"/>
</mask>
<g mask="url(#mask17_35_4459)">
<path d="M97.2962 0.00426102H62.7905V38.0514H97.2962V0.00426102Z" fill="url(#paint17_linear_35_4459)"/>
</g>
<path d="M134.038 69.5684C133.918 69.2001 133.759 68.87 133.562 68.5782C133.369 68.2828 133.138 68.0312 132.868 67.8233C132.601 67.6154 132.299 67.4568 131.96 67.3474C131.62 67.2379 131.248 67.1832 130.844 67.1832C130.18 67.1832 129.576 67.3546 129.033 67.6975C128.489 68.0403 128.057 68.5454 127.736 69.2128C127.415 69.8802 127.255 70.699 127.255 71.6691C127.255 72.6393 127.417 73.458 127.742 74.1254C128.066 74.7929 128.506 75.298 129.06 75.6408C129.614 75.9836 130.238 76.155 130.931 76.155C131.573 76.155 132.138 76.0183 132.627 75.7447C133.119 75.4676 133.502 75.0773 133.776 74.574C134.053 74.0671 134.192 73.4708 134.192 72.7851L134.607 72.8727H131.237V71.6691H135.505V72.8727C135.505 73.7954 135.308 74.5977 134.914 75.2797C134.523 75.9617 133.984 76.4906 133.294 76.8662C132.609 77.2382 131.821 77.4242 130.931 77.4242C129.939 77.4242 129.067 77.1908 128.316 76.724C127.568 76.2572 126.985 75.5934 126.566 74.7327C126.15 73.872 125.942 72.8508 125.942 71.6691C125.942 70.7829 126.06 69.986 126.297 69.2785C126.538 68.5673 126.877 67.9619 127.315 67.4622C127.753 66.9626 128.271 66.5796 128.869 66.3134C129.467 66.0472 130.125 65.9141 130.844 65.9141C131.434 65.9141 131.985 66.0034 132.496 66.1821C133.01 66.3572 133.468 66.607 133.869 66.9316C134.274 67.2525 134.611 67.6373 134.881 68.0859C135.151 68.5308 135.337 69.025 135.439 69.5684H134.038Z" fill="#674099"/>
<path d="M123.665 66.0672V77.271H122.352L116.247 68.4743H116.137V77.271H114.781V66.0672H116.093L122.221 74.8858H122.33V66.0672H123.665Z" fill="#674099"/>
<path d="M112.06 66.0672V77.271H110.703V66.0672H112.06Z" fill="#674099"/>
<path d="M100.207 67.2708V66.0672H108.61V67.2708H105.086V77.271H103.73V67.2708H100.207Z" fill="#674099"/>
<path d="M89.4159 77.271V66.0672H90.7726V71.0564H96.7465V66.0672H98.1032V77.271H96.7465V72.26H90.7726V77.271H89.4159Z" fill="#674099"/>
<path d="M85.626 69.5684C85.5057 69.2001 85.347 68.87 85.1501 68.5782C84.9568 68.2828 84.7252 68.0312 84.4553 67.8233C84.1891 67.6154 83.8864 67.4568 83.5472 67.3474C83.208 67.2379 82.836 67.1832 82.4312 67.1832C81.7674 67.1832 81.1639 67.3546 80.6204 67.6975C80.077 68.0403 79.6448 68.5454 79.3239 69.2128C79.003 69.8802 78.8425 70.699 78.8425 71.6691C78.8425 72.6393 79.0048 73.458 79.3294 74.1254C79.654 74.7929 80.0934 75.298 80.6478 75.6408C81.2021 75.9836 81.8258 76.155 82.5187 76.155C83.1606 76.155 83.7259 76.0183 84.2146 75.7447C84.707 75.4676 85.0899 75.0773 85.3635 74.574C85.6406 74.0671 85.7792 73.4708 85.7792 72.7851L86.195 72.8727H82.8251V71.6691H87.0922V72.8727C87.0922 73.7954 86.8952 74.5977 86.5013 75.2797C86.1111 75.9617 85.5713 76.4906 84.882 76.8662C84.1964 77.2382 83.4086 77.4242 82.5187 77.4242C81.5267 77.4242 80.6551 77.1908 79.9038 76.724C79.1561 76.2572 78.5726 75.5934 78.1532 74.7327C77.7374 73.872 77.5295 72.8508 77.5295 71.6691C77.5295 70.7829 77.6481 69.986 77.8851 69.2785C78.1258 68.5673 78.465 67.9619 78.9027 67.4622C79.3403 66.9626 79.8582 66.5796 80.4563 66.3134C81.0544 66.0472 81.7127 65.9141 82.4312 65.9141C83.022 65.9141 83.5727 66.0034 84.0833 66.1821C84.5976 66.3572 85.0553 66.607 85.4565 66.9316C85.8613 67.2525 86.1986 67.6373 86.4685 68.0859C86.7384 68.5308 86.9244 69.025 87.0265 69.5684H85.626Z" fill="#674099"/>
<path d="M75.2471 66.0672V77.271H73.8904V66.0672H75.2471Z" fill="#674099"/>
<path d="M65.225 77.271V66.0672H66.5817V76.0675H71.7897V77.271H65.225Z" fill="#674099"/>
<path d="M53.2772 77.271H49.8198V66.0672H53.4304C54.5173 66.0672 55.4473 66.2915 56.2204 66.7401C56.9936 67.1851 57.5863 67.8251 57.9984 68.6603C58.4105 69.4918 58.6166 70.4875 58.6166 71.6472C58.6166 72.8143 58.4087 73.8191 57.9929 74.6616C57.5771 75.5004 56.9717 76.1459 56.1767 76.5981C55.3816 77.0467 54.4151 77.271 53.2772 77.271ZM51.1765 76.0675H53.1897C54.1161 76.0675 54.8838 75.8888 55.4928 75.5314C56.1019 75.174 56.556 74.6652 56.855 74.0051C57.1541 73.345 57.3036 72.559 57.3036 71.6472C57.3036 70.7428 57.1559 69.9641 56.8605 69.3113C56.5651 68.6548 56.1238 68.1515 55.5366 67.8014C54.9494 67.4476 54.2182 67.2708 53.3429 67.2708H51.1765V76.0675Z" fill="#674099"/>
<path d="M40.6127 77.271V66.0672H47.3743V67.2708H41.9694V71.0564H47.0242V72.26H41.9694V76.0675H47.4619V77.271H40.6127Z" fill="#674099"/>
<path d="M31.9471 77.271V66.0672H33.3039V76.0675H38.5119V77.271H31.9471Z" fill="#674099"/>
<defs>
<linearGradient id="paint0_linear_35_4459" x1="67.7317" y1="63.6956" x2="67.7317" y2="-5.02785" gradientUnits="userSpaceOnUse">
<stop stop-color="#674099"/>
<stop offset="0.5" stop-color="#EB4F23"/>
<stop offset="1" stop-color="#EB4F23"/>
</linearGradient>
<linearGradient id="paint1_linear_35_4459" x1="7.14374" y1="63.6959" x2="7.14374" y2="-5.02759" gradientUnits="userSpaceOnUse">
<stop stop-color="#674099"/>
<stop offset="0.5" stop-color="#EB4F23"/>
<stop offset="1" stop-color="#EB4F23"/>
</linearGradient>
<linearGradient id="paint2_linear_35_4459" x1="21.8112" y1="63.6956" x2="21.8112" y2="-5.02785" gradientUnits="userSpaceOnUse">
<stop stop-color="#674099"/>
<stop offset="0.5" stop-color="#EB4F23"/>
<stop offset="1" stop-color="#EB4F23"/>
</linearGradient>
<linearGradient id="paint3_linear_35_4459" x1="34.0172" y1="63.6956" x2="34.0172" y2="-5.02785" gradientUnits="userSpaceOnUse">
<stop stop-color="#674099"/>
<stop offset="0.5" stop-color="#EB4F23"/>
<stop offset="1" stop-color="#EB4F23"/>
</linearGradient>
<linearGradient id="paint4_linear_35_4459" x1="46.5659" y1="63.6958" x2="46.5659" y2="-5.02763" gradientUnits="userSpaceOnUse">
<stop stop-color="#674099"/>
<stop offset="0.5" stop-color="#EB4F23"/>
<stop offset="1" stop-color="#EB4F23"/>
</linearGradient>
<linearGradient id="paint5_linear_35_4459" x1="58.4234" y1="63.6956" x2="58.4234" y2="-5.02785" gradientUnits="userSpaceOnUse">
<stop stop-color="#674099"/>
<stop offset="0.5" stop-color="#EB4F23"/>
<stop offset="1" stop-color="#EB4F23"/>
</linearGradient>
<linearGradient id="paint6_linear_35_4459" x1="69.9271" y1="63.6956" x2="69.9271" y2="-5.02783" gradientUnits="userSpaceOnUse">
<stop stop-color="#674099"/>
<stop offset="0.5" stop-color="#EB4F23"/>
<stop offset="1" stop-color="#EB4F23"/>
</linearGradient>
<linearGradient id="paint7_linear_35_4459" x1="83.3256" y1="63.6956" x2="83.3256" y2="-5.02784" gradientUnits="userSpaceOnUse">
<stop stop-color="#674099"/>
<stop offset="0.5" stop-color="#EB4F23"/>
<stop offset="1" stop-color="#EB4F23"/>
</linearGradient>
<linearGradient id="paint8_linear_35_4459" x1="99.0435" y1="63.6956" x2="99.0435" y2="-5.02785" gradientUnits="userSpaceOnUse">
<stop stop-color="#674099"/>
<stop offset="0.5" stop-color="#EB4F23"/>
<stop offset="1" stop-color="#EB4F23"/>
</linearGradient>
<linearGradient id="paint9_linear_35_4459" x1="111.846" y1="63.6956" x2="111.846" y2="-5.02783" gradientUnits="userSpaceOnUse">
<stop stop-color="#674099"/>
<stop offset="0.5" stop-color="#EB4F23"/>
<stop offset="1" stop-color="#EB4F23"/>
</linearGradient>
<linearGradient id="paint10_linear_35_4459" x1="126.2" y1="63.6956" x2="126.2" y2="-5.02785" gradientUnits="userSpaceOnUse">
<stop stop-color="#674099"/>
<stop offset="0.5" stop-color="#EB4F23"/>
<stop offset="1" stop-color="#EB4F23"/>
</linearGradient>
<linearGradient id="paint11_linear_35_4459" x1="140.218" y1="63.6962" x2="140.218" y2="-5.02725" gradientUnits="userSpaceOnUse">
<stop stop-color="#674099"/>
<stop offset="0.5" stop-color="#EB4F23"/>
<stop offset="1" stop-color="#EB4F23"/>
</linearGradient>
<linearGradient id="paint12_linear_35_4459" x1="88.0239" y1="63.6956" x2="88.0239" y2="-5.02778" gradientUnits="userSpaceOnUse">
<stop stop-color="#674099"/>
<stop offset="0.5" stop-color="#EB4F23"/>
<stop offset="1" stop-color="#EB4F23"/>
</linearGradient>
<linearGradient id="paint13_linear_35_4459" x1="92.126" y1="63.6956" x2="92.126" y2="-5.02785" gradientUnits="userSpaceOnUse">
<stop stop-color="#674099"/>
<stop offset="0.5" stop-color="#EB4F23"/>
<stop offset="1" stop-color="#EB4F23"/>
</linearGradient>
<linearGradient id="paint14_linear_35_4459" x1="65.9491" y1="63.6956" x2="65.9491" y2="-5.02786" gradientUnits="userSpaceOnUse">
<stop stop-color="#674099"/>
<stop offset="0.5" stop-color="#EB4F23"/>
<stop offset="1" stop-color="#EB4F23"/>
</linearGradient>
<linearGradient id="paint15_linear_35_4459" x1="94.8942" y1="63.6956" x2="94.8942" y2="-5.02783" gradientUnits="userSpaceOnUse">
<stop stop-color="#674099"/>
<stop offset="0.5" stop-color="#EB4F23"/>
<stop offset="1" stop-color="#EB4F23"/>
</linearGradient>
<linearGradient id="paint16_linear_35_4459" x1="62.4902" y1="63.6956" x2="62.4902" y2="-5.02785" gradientUnits="userSpaceOnUse">
<stop stop-color="#674099"/>
<stop offset="0.5" stop-color="#EB4F23"/>
<stop offset="1" stop-color="#EB4F23"/>
</linearGradient>
<linearGradient id="paint17_linear_35_4459" x1="80.0505" y1="63.6961" x2="80.0505" y2="-5.02736" gradientUnits="userSpaceOnUse">
<stop stop-color="#674099"/>
<stop offset="0.5" stop-color="#EB4F23"/>
<stop offset="1" stop-color="#EB4F23"/>
</linearGradient>
</defs>
</svg>
