<svg width="51" height="50" viewBox="0 0 51 50" fill="none" xmlns="http://www.w3.org/2000/svg">
<path d="M8.28149 9.375H13.09C13.7857 9.375 14.1336 9.375 14.3954 9.56376C14.6573 9.75252 14.7673 10.0825 14.9873 10.7425L16.6148 15.625" stroke="#222222" stroke-width="2.6" stroke-linecap="round"/>
<path d="M37.4482 36.4583H17.3063C16.0401 36.4583 15.407 36.4583 15.1077 36.043C14.8084 35.6277 15.0086 35.0271 15.409 33.8259L15.7031 32.9434C16.1431 31.6234 16.3632 30.9634 16.8869 30.5858C17.4107 30.2083 18.1064 30.2083 19.4979 30.2083H31.1982" stroke="#222222" stroke-width="2.6" stroke-linecap="round" stroke-linejoin="round"/>
<path d="M33.0434 30.2083H21.3356C20.0564 30.2083 19.4167 30.2083 18.9158 29.878C18.4149 29.5477 18.1629 28.9598 17.659 27.784L14.2402 19.8068C13.4307 17.9179 13.0259 16.9735 13.4705 16.2993C13.9152 15.625 14.9426 15.625 16.9976 15.625H38.5285C40.8275 15.625 41.977 15.625 42.4106 16.3721C42.8442 17.1192 42.2738 18.1173 41.1332 20.1134L36.5163 28.1929C35.9544 29.1763 35.6734 29.668 35.2079 29.9382C34.7423 30.2083 34.176 30.2083 33.0434 30.2083Z" stroke="#222222" stroke-width="2.6" stroke-linecap="round"/>
<circle cx="36.4063" cy="41.6667" r="2.08333" fill="#222222"/>
<circle cx="19.7398" cy="41.6667" r="2.08333" fill="#222222"/>
</svg>
